{
  "accessors": [
    {
      "bufferView": 2,
      "componentType": 5126,
      "count": 2227,
      "max": [
        3.862544059753418,
        -9.2932291030883789,
        0.85605299472808838
      ],
      "min": [
        -3.8718369007110596,
        -51.180267333984375,
        -0.85605502128601074
      ],
      "type": "VEC3"
    },
    {
      "bufferView": 2,
      "byteOffset": 26724,
      "componentType": 5126,
      "count": 2227,
      "max": [
        1,
        1,
        1
      ],
      "min": [
        -1,
        -1,
        -1
      ],
      "type": "VEC3"
    },
    {
      "bufferView": 3,
      "componentType": 5126,
      "count": 2227,
      "max": [
        1,
        0.99995219707489014,
        1,
        1
      ],
      "min": [
        -1,
        -1,
        -1,
        -1
      ],
      "type": "VEC4"
    },
    {
      "bufferView": 1,
      "componentType": 5126,
      "count": 2227,
      "max": [
        0.98866897821426392,
        0.99537801742553711
      ],
      "min": [
        0.0020000000949949026,
        0.0020000000949949026
      ],
      "type": "VEC2"
    },
    {
      "bufferView": 0,
      "componentType": 5125,
      "count": 5796,
      "max": [
        2226
      ],
      "min": [
        0
      ],
      "type": "SCALAR"
    },
    {
      "bufferView": 2,
      "byteOffset": 53448,
      "componentType": 5126,
      "count": 3015,
      "max": [
        4.1501350402832031,
        0.62052297592163086,
        0.85605299472808838
      ],
      "min": [
        -4.1594281196594238,
        -51.180267333984375,
        -0.85605502128601074
      ],
      "type": "VEC3"
    },
    {
      "bufferView": 2,
      "byteOffset": 89628,
      "componentType": 5126,
      "count": 3015,
      "max": [
        1,
        1,
        1
      ],
      "min": [
        -1,
        -1,
        -1
      ],
      "type": "VEC3"
    },
    {
      "bufferView": 3,
      "byteOffset": 35632,
      "componentType": 5126,
      "count": 3015,
      "max": [
        1,
        0.99995142221450806,
        0.99999982118606567,
        1
      ],
      "min": [
        -1,
        -1,
        -0.99999982118606567,
        -1
      ],
      "type": "VEC4"
    },
    {
      "bufferView": 1,
      "byteOffset": 17816,
      "componentType": 5126,
      "count": 3015,
      "max": [
        0.98866897821426392,
        0.99674099683761597
      ],
      "min": [
        0.0020000000949949026,
        0.17834800481796265
      ],
      "type": "VEC2"
    },
    {
      "bufferView": 0,
      "byteOffset": 23184,
      "componentType": 5125,
      "count": 11562,
      "max": [
        3014
      ],
      "min": [
        0
      ],
      "type": "SCALAR"
    },
    {
      "bufferView": 2,
      "byteOffset": 125808,
      "componentType": 5126,
      "count": 8182,
      "max": [
        3.7580890655517578,
        0.62052297592163086,
        0.86305397748947144
      ],
      "min": [
        -3.7857151031494141,
        -51.180267333984375,
        -0.8630560040473938
      ],
      "type": "VEC3"
    },
    {
      "bufferView": 2,
      "byteOffset": 223992,
      "componentType": 5126,
      "count": 8182,
      "max": [
        1,
        1,
        1
      ],
      "min": [
        -1,
        -1,
        -1
      ],
      "type": "VEC3"
    },
    {
      "bufferView": 3,
      "byteOffset": 83872,
      "componentType": 5126,
      "count": 8182,
      "max": [
        1,
        0.99998849630355835,
        1,
        1
      ],
      "min": [
        -1,
        -0.99999982118606567,
        -1,
        -1
      ],
      "type": "VEC4"
    },
    {
      "bufferView": 1,
      "byteOffset": 41936,
      "componentType": 5126,
      "count": 8182,
      "max": [
        0.99800002574920654,
        0.99568700790405273
      ],
      "min": [
        0.0025220001116394997,
        0.059902001172304153
      ],
      "type": "VEC2"
    },
    {
      "bufferView": 0,
      "byteOffset": 69432,
      "componentType": 5125,
      "count": 30648,
      "max": [
        8181
      ],
      "min": [
        0
      ],
      "type": "SCALAR"
    }
  ],
  "asset": {
    "extras": {
      "author": "Dharvey296 (https://sketchfab.com/dharvey296)",
      "license": "CC-BY-4.0 (http://creativecommons.org/licenses/by/4.0/)",
      "source": "https://sketchfab.com/models/9b931e7276c54c25ba919393f23500e4",
      "title": "Final Fantasy 7: Buster Sword"
    },
    "generator": "Sketchfab-3.20.7",
    "version": "2.0"
  },
  "bufferViews": [
    {
      "buffer": 0,
      "byteLength": 192024,
      "byteOffset": 0,
      "name": "floatBufferViews",
      "target": 34963
    },
    {
      "buffer": 0,
      "byteLength": 107392,
      "byteOffset": 192024,
      "byteStride": 8,
      "name": "floatBufferViews",
      "target": 34962
    },
    {
      "buffer": 0,
      "byteLength": 322176,
      "byteOffset": 299416,
      "byteStride": 12,
      "name": "floatBufferViews",
      "target": 34962
    },
    {
      "buffer": 0,
      "byteLength": 214784,
      "byteOffset": 621592,
      "byteStride": 16,
      "name": "floatBufferViews",
      "target": 34962
    }
  ],
  "buffers": [
    {
      "byteLength": 836376,
      "uri": "scene.bin"
    }
  ],
  "images": [
    {
      "uri": "textures/material_0_baseColor.png"
    },
    {
      "uri": "textures/material_0_normal.png"
    },
    {
      "uri": "textures/material_0_metallicRoughness.png"
    }
  ],
  "materials": [
    {
      "doubleSided": true,
      "name": "material_0",
      "normalTexture": {
        "index": 1,
        "scale": 1,
        "texCoord": 0
      },
      "pbrMetallicRoughness": {
        "baseColorFactor": [
          1,
          1,
          1,
          1
        ],
        "baseColorTexture": {
          "index": 0,
          "texCoord": 0
        },
        "metallicFactor": 0.90000000000000002,
        "metallicRoughnessTexture": {
          "index": 2,
          "texCoord": 0
        },
        "roughnessFactor": 0.89000000000000001
      }
    }
  ],
  "meshes": [
    {
      "primitives": [
        {
          "attributes": {
            "NORMAL": 1,
            "POSITION": 0,
            "TANGENT": 2,
            "TEXCOORD_0": 3
          },
          "indices": 4,
          "material": 0,
          "mode": 4
        }
      ]
    },
    {
      "primitives": [
        {
          "attributes": {
            "NORMAL": 6,
            "POSITION": 5,
            "TANGENT": 7,
            "TEXCOORD_0": 8
          },
          "indices": 9,
          "material": 0,
          "mode": 4
        }
      ]
    },
    {
      "primitives": [
        {
          "attributes": {
            "NORMAL": 11,
            "POSITION": 10,
            "TANGENT": 12,
            "TEXCOORD_0": 13
          },
          "indices": 14,
          "material": 0,
          "mode": 4
        }
      ]
    }
  ],
  "nodes": [
    {
      "children": [
        1
      ],
      "name": "RootNode (gltf orientation matrix)",
      "rotation": [
        -0.70710678118654746,
        -0,
        -0,
        0.70710678118654757
      ]
    },
    {
      "children": [
        2
      ],
      "matrix": [
        -0.0094802631065249443,
        0.77177917957305908,
        -0.63581997156143188,
        0,
        0,
        0.6358485221862793,
        0.77181386947631836,
        0,
        0.99995505809783936,
        0.0073169982060790062,
        -0.0060280114412307739,
        0,
        -0.0047002215869724751,
        -9.2069377899169922,
        19.518630981445312,
        1
      ],
      "name": "RootNode (model correction matrix)"
    },
    {
      "children": [
        3,
        4,
        5
      ],
      "name": "Buster_Test.obj.cleaner.gles"
    },
    {
      "mesh": 0,
      "name": ""
    },
    {
      "mesh": 1,
      "name": ""
    },
    {
      "mesh": 2,
      "name": ""
    }
  ],
  "samplers": [
    {
      "magFilter": 9729,
      "minFilter": 9987,
      "wrapS": 10497,
      "wrapT": 10497
    }
  ],
  "scene": 0,
  "scenes": [
    {
      "name": "OSG_Scene",
      "nodes": [
        0
      ]
    }
  ],
  "textures": [
    {
      "sampler": 0,
      "source": 0
    },
    {
      "sampler": 0,
      "source": 1
    },
    {
      "sampler": 0,
      "source": 2
    }
  ]
}

